<mxfile host="app.diagrams.net" modified="2023-12-06T18:11:51.677Z" agent="Mozilla/5.0 (X11; Ubuntu; Linux x86_64; rv:109.0) Gecko/20100101 Firefox/119.0" etag="-qWFJej4pHElpxX0MnSA" version="22.1.5" type="device">
  <diagram name="Page-1" id="7uVPGEEwsMvcZk7KV13P">
    <mxGraphModel dx="1074" dy="725" grid="1" gridSize="10" guides="1" tooltips="1" connect="1" arrows="1" fold="1" page="1" pageScale="1" pageWidth="850" pageHeight="1100" math="0" shadow="0">
      <root>
        <mxCell id="0" />
        <mxCell id="1" parent="0" />
        <mxCell id="V7Mr2_GlKd1q3QWcFAud-15" style="edgeStyle=orthogonalEdgeStyle;rounded=0;orthogonalLoop=1;jettySize=auto;html=1;exitX=1;exitY=0.5;exitDx=0;exitDy=0;entryX=0;entryY=0.5;entryDx=0;entryDy=0;" edge="1" parent="1" source="V7Mr2_GlKd1q3QWcFAud-1" target="V7Mr2_GlKd1q3QWcFAud-8">
          <mxGeometry relative="1" as="geometry" />
        </mxCell>
        <mxCell id="V7Mr2_GlKd1q3QWcFAud-1" value="Клиент" style="rounded=0;whiteSpace=wrap;html=1;" vertex="1" parent="1">
          <mxGeometry x="170" y="170" width="120" height="60" as="geometry" />
        </mxCell>
        <mxCell id="V7Mr2_GlKd1q3QWcFAud-16" style="edgeStyle=orthogonalEdgeStyle;rounded=0;orthogonalLoop=1;jettySize=auto;html=1;exitX=1;exitY=0.5;exitDx=0;exitDy=0;" edge="1" parent="1" source="V7Mr2_GlKd1q3QWcFAud-4">
          <mxGeometry relative="1" as="geometry">
            <mxPoint x="350" y="360" as="targetPoint" />
            <Array as="points">
              <mxPoint x="320" y="280" />
              <mxPoint x="320" y="360" />
            </Array>
          </mxGeometry>
        </mxCell>
        <mxCell id="V7Mr2_GlKd1q3QWcFAud-4" value="Клиент" style="rounded=0;whiteSpace=wrap;html=1;" vertex="1" parent="1">
          <mxGeometry x="170" y="250" width="120" height="60" as="geometry" />
        </mxCell>
        <mxCell id="V7Mr2_GlKd1q3QWcFAud-17" style="edgeStyle=orthogonalEdgeStyle;rounded=0;orthogonalLoop=1;jettySize=auto;html=1;exitX=1;exitY=0.5;exitDx=0;exitDy=0;entryX=0;entryY=0.5;entryDx=0;entryDy=0;" edge="1" parent="1" source="V7Mr2_GlKd1q3QWcFAud-5" target="V7Mr2_GlKd1q3QWcFAud-8">
          <mxGeometry relative="1" as="geometry" />
        </mxCell>
        <mxCell id="V7Mr2_GlKd1q3QWcFAud-5" value="Клиент" style="rounded=0;whiteSpace=wrap;html=1;" vertex="1" parent="1">
          <mxGeometry x="170" y="330" width="120" height="60" as="geometry" />
        </mxCell>
        <mxCell id="V7Mr2_GlKd1q3QWcFAud-18" style="edgeStyle=orthogonalEdgeStyle;rounded=0;orthogonalLoop=1;jettySize=auto;html=1;exitX=1;exitY=0.5;exitDx=0;exitDy=0;entryX=0;entryY=0.5;entryDx=0;entryDy=0;" edge="1" parent="1" source="V7Mr2_GlKd1q3QWcFAud-6" target="V7Mr2_GlKd1q3QWcFAud-8">
          <mxGeometry relative="1" as="geometry" />
        </mxCell>
        <mxCell id="V7Mr2_GlKd1q3QWcFAud-6" value="Клиент" style="rounded=0;whiteSpace=wrap;html=1;" vertex="1" parent="1">
          <mxGeometry x="170" y="410" width="120" height="60" as="geometry" />
        </mxCell>
        <mxCell id="V7Mr2_GlKd1q3QWcFAud-19" style="edgeStyle=orthogonalEdgeStyle;rounded=0;orthogonalLoop=1;jettySize=auto;html=1;exitX=1;exitY=0.5;exitDx=0;exitDy=0;entryX=0;entryY=0.5;entryDx=0;entryDy=0;" edge="1" parent="1" source="V7Mr2_GlKd1q3QWcFAud-7" target="V7Mr2_GlKd1q3QWcFAud-8">
          <mxGeometry relative="1" as="geometry" />
        </mxCell>
        <mxCell id="V7Mr2_GlKd1q3QWcFAud-7" value="Клиент" style="rounded=0;whiteSpace=wrap;html=1;" vertex="1" parent="1">
          <mxGeometry x="170" y="490" width="120" height="60" as="geometry" />
        </mxCell>
        <mxCell id="V7Mr2_GlKd1q3QWcFAud-20" style="edgeStyle=orthogonalEdgeStyle;rounded=0;orthogonalLoop=1;jettySize=auto;html=1;exitX=1;exitY=0.5;exitDx=0;exitDy=0;entryX=0;entryY=0.5;entryDx=0;entryDy=0;" edge="1" parent="1" source="V7Mr2_GlKd1q3QWcFAud-8" target="V7Mr2_GlKd1q3QWcFAud-9">
          <mxGeometry relative="1" as="geometry" />
        </mxCell>
        <mxCell id="V7Mr2_GlKd1q3QWcFAud-8" value="Сокет" style="rounded=0;whiteSpace=wrap;html=1;" vertex="1" parent="1">
          <mxGeometry x="350" y="330" width="120" height="60" as="geometry" />
        </mxCell>
        <mxCell id="V7Mr2_GlKd1q3QWcFAud-21" style="edgeStyle=orthogonalEdgeStyle;rounded=0;orthogonalLoop=1;jettySize=auto;html=1;exitX=1;exitY=0.5;exitDx=0;exitDy=0;entryX=0;entryY=0.5;entryDx=0;entryDy=0;" edge="1" parent="1" source="V7Mr2_GlKd1q3QWcFAud-9" target="V7Mr2_GlKd1q3QWcFAud-12">
          <mxGeometry relative="1" as="geometry" />
        </mxCell>
        <mxCell id="V7Mr2_GlKd1q3QWcFAud-22" style="edgeStyle=orthogonalEdgeStyle;rounded=0;orthogonalLoop=1;jettySize=auto;html=1;exitX=1;exitY=0.5;exitDx=0;exitDy=0;entryX=0;entryY=0.5;entryDx=0;entryDy=0;" edge="1" parent="1" source="V7Mr2_GlKd1q3QWcFAud-9" target="V7Mr2_GlKd1q3QWcFAud-11">
          <mxGeometry relative="1" as="geometry" />
        </mxCell>
        <mxCell id="V7Mr2_GlKd1q3QWcFAud-23" style="edgeStyle=orthogonalEdgeStyle;rounded=0;orthogonalLoop=1;jettySize=auto;html=1;exitX=1;exitY=0.5;exitDx=0;exitDy=0;entryX=0;entryY=0.5;entryDx=0;entryDy=0;" edge="1" parent="1" source="V7Mr2_GlKd1q3QWcFAud-9" target="V7Mr2_GlKd1q3QWcFAud-10">
          <mxGeometry relative="1" as="geometry" />
        </mxCell>
        <mxCell id="V7Mr2_GlKd1q3QWcFAud-24" style="edgeStyle=orthogonalEdgeStyle;rounded=0;orthogonalLoop=1;jettySize=auto;html=1;exitX=1;exitY=0.5;exitDx=0;exitDy=0;entryX=0;entryY=0.5;entryDx=0;entryDy=0;" edge="1" parent="1" source="V7Mr2_GlKd1q3QWcFAud-9" target="V7Mr2_GlKd1q3QWcFAud-13">
          <mxGeometry relative="1" as="geometry" />
        </mxCell>
        <mxCell id="V7Mr2_GlKd1q3QWcFAud-25" style="edgeStyle=orthogonalEdgeStyle;rounded=0;orthogonalLoop=1;jettySize=auto;html=1;exitX=1;exitY=0.5;exitDx=0;exitDy=0;entryX=0;entryY=0.5;entryDx=0;entryDy=0;" edge="1" parent="1" source="V7Mr2_GlKd1q3QWcFAud-9" target="V7Mr2_GlKd1q3QWcFAud-14">
          <mxGeometry relative="1" as="geometry" />
        </mxCell>
        <mxCell id="V7Mr2_GlKd1q3QWcFAud-9" value="Listener" style="rounded=0;whiteSpace=wrap;html=1;" vertex="1" parent="1">
          <mxGeometry x="530" y="330" width="120" height="60" as="geometry" />
        </mxCell>
        <mxCell id="V7Mr2_GlKd1q3QWcFAud-10" value="Thread" style="rounded=0;whiteSpace=wrap;html=1;" vertex="1" parent="1">
          <mxGeometry x="710" y="330" width="120" height="60" as="geometry" />
        </mxCell>
        <mxCell id="V7Mr2_GlKd1q3QWcFAud-11" value="Thread" style="rounded=0;whiteSpace=wrap;html=1;" vertex="1" parent="1">
          <mxGeometry x="710" y="250" width="120" height="60" as="geometry" />
        </mxCell>
        <mxCell id="V7Mr2_GlKd1q3QWcFAud-12" value="Thread" style="rounded=0;whiteSpace=wrap;html=1;" vertex="1" parent="1">
          <mxGeometry x="710" y="170" width="120" height="60" as="geometry" />
        </mxCell>
        <mxCell id="V7Mr2_GlKd1q3QWcFAud-13" value="Thread" style="rounded=0;whiteSpace=wrap;html=1;" vertex="1" parent="1">
          <mxGeometry x="710" y="410" width="120" height="60" as="geometry" />
        </mxCell>
        <mxCell id="V7Mr2_GlKd1q3QWcFAud-14" value="Thread" style="rounded=0;whiteSpace=wrap;html=1;" vertex="1" parent="1">
          <mxGeometry x="710" y="490" width="120" height="60" as="geometry" />
        </mxCell>
        <mxCell id="V7Mr2_GlKd1q3QWcFAud-26" value="Threadpool" style="text;html=1;align=center;verticalAlign=middle;resizable=0;points=[];autosize=1;strokeColor=none;fillColor=none;" vertex="1" parent="1">
          <mxGeometry x="731" y="128" width="80" height="30" as="geometry" />
        </mxCell>
      </root>
    </mxGraphModel>
  </diagram>
</mxfile>
